<?xml version="1.0" encoding="utf-8"?>
<svg version="1.1" id="Layer_1" xmlns="http://www.w3.org/2000/svg" xmlns:xlink="http://www.w3.org/1999/xlink" x="0px" y="0px"
	 viewBox="0 0 160.8 160.7" style="enable-background:new 0 0 160.8 160.7;" xml:space="preserve">
<g>
	<path fill="#F8E71C" d="M0,80.2C0.1,35.8,36,0,80.3,0c44.5,0,80.7,36.2,80.4,80.6c-0.2,44.8-36.4,80.2-81.7,80.1C35.7,160.5-0.1,124,0,80.2z
		 M65.1,99.4c-1.1-1-1.6-1.4-2-1.8c-5.4-5.4-10.9-10.8-16.2-16.3c-1.6-1.6-2.9-1.6-4.5,0c-1.3,1.3-2.6,2.6-3.9,3.9
		c-2.2,2.2-2.2,2.9,0,5.1c7.6,7.6,15.1,15.3,22.7,22.9c2.8,2.8,3.6,2.8,6.3,0.1c17.9-17.9,35.8-35.8,53.7-53.7
		c0.3-0.3,0.6-0.6,0.9-0.9c1.6-1.5,1.7-2.9,0.1-4.5c-1.2-1.1-2.2-2.3-3.3-3.4c-2.7-2.8-3.6-2.8-6.3-0.1C97.3,66.1,82,81.4,66.7,96.8
		C66,97.5,65.6,98.5,65.1,99.4z"/>
</g>
</svg>
