<?xml version="1.0" encoding="utf-8"?>
<svg version="1.1" id="Layer_1" xmlns="http://www.w3.org/2000/svg" xmlns:xlink="http://www.w3.org/1999/xlink" x="0px" y="0px"
	 viewBox="0 0 612 792" style="enable-background:new 0 0 612 792;" xml:space="preserve">
<g>
	<path d="M113.2,356.7c0-3.2,0-6.2,0-9.2c0-5.2,2.3-7.4,7.5-7.5c11.7,0,23.5,0,35.2,0c5,0,7.1,2.1,7.2,7.1c0,2.4,0.1,4.8,0,7.2
		c-0.1,1.8,0.5,2.5,2.4,2.5c6.3,0,11.7,2.3,16.2,6.7c3.3,3.2,5.1,7.3,6.2,11.7c1.2,4.8,2.3,9.5,3.6,14.3c0.4,1.5,1.4,3,2.5,4.1
		c4.4,4.1,6.9,9.1,7,15.2c0,6.1,0,12.2,0,18.2c0,3.7-0.9,7-3.3,10c-0.6,0.7-0.8,1.8-0.8,2.8c-0.1,3.5,0,7,0,10.5
		c-0.1,4.3-2.4,6.7-6.6,6.8c-2.7,0.1-5.3,0.1-8,0c-3.4-0.1-5.5-2-5.8-5.4c-0.3-2.9-0.1-5.9-0.1-9.2c-1.4,0-2.2,0-3.1,0
		c-23.4,0-46.8,0-70.2-0.1c-2.5,0-3.2,0.8-3,3.1c0.2,2,0.1,4,0,6c-0.2,3.3-2.3,5.4-5.6,5.5c-2.9,0.1-5.8,0.1-8.7,0
		c-3.6-0.1-5.8-2.4-6-6c-0.1-3.6,0.1-7.2-0.1-10.7c-0.1-1.3-0.8-2.6-1.3-3.9c-0.9-2.5-2.4-5-2.6-7.6c-0.4-7-0.2-14-0.1-21
		c0.1-5.6,2.7-10.1,6.7-14c1.2-1.1,2.2-2.7,2.7-4.2c1.6-5.7,2.8-11.5,4.5-17.1c2.7-8.8,10.6-14.9,19.8-15.4
		C110.5,357,111.7,356.8,113.2,356.7z M138.1,432.5c15.6,0,31.1,0,46.7,0c4.8,0,6.2-1.5,6.2-6.3c0-5.7,0.1-11.3,0-17
		c-0.1-6.5-4.3-10.9-10.8-10.9c-28-0.1-56-0.1-84,0c-6.6,0-10.8,4.5-10.8,11.1c0,5.4,0,10.8,0,16.2c0,5.5,1.2,6.8,6.7,6.8
		C107.5,432.5,122.8,432.5,138.1,432.5z M97.6,388.1c27.3,0,54.1,0,81.1,0c-0.8-3.4-1.5-6.4-2.2-9.5c-0.2-0.7-0.4-1.5-0.6-2.2
		c-1.6-4.7-5.6-7.6-10.6-7.6c-18.1,0-36.1,0-54.2,0c-4.5,0-8.1,2.1-9.7,6.1C99.6,379.1,98.8,383.6,97.6,388.1z M123.4,356.6
		c10.1,0,19.8,0,29.6,0c0-2.3,0-4.3,0-6.5c-9.9,0-19.7,0-29.6,0C123.4,352.4,123.4,354.4,123.4,356.6z"/>
	<path d="M423.8,426.9c0,10.9,0,21.8,0,32.8c-2.6,0-5,0-7.6,0c0-15.6,0-31.2,0-47.1c2.4,0,4.7-0.2,7,0.1c0.7,0.1,1.5,1.2,2,1.9
		c6.1,9.7,12.2,19.4,18.3,29.1c0.5,0.7,1,1.5,2,2.1c0-11,0-22,0-33.1c2.7,0,5.1,0,7.6,0c0,15.6,0,31.2,0,47.1
		c-2.3,0-4.6,0.1-6.9-0.1c-0.7-0.1-1.4-1-1.8-1.7c-6-9.5-12-19-17.9-28.5c-0.6-1-1.4-1.9-2.1-2.9
		C424.3,426.7,424.1,426.8,423.8,426.9z"/>
	<path d="M368.3,412.6c2.3,0,4.6-0.2,6.8,0.1c0.8,0.1,1.7,1.2,2.2,2c6.2,9.7,12.2,19.4,18.4,29.1c0.5,0.7,1,1.4,2,2
		c0-11,0-22,0-33.1c2.7,0,5.1,0,7.6,0c0,15.7,0,31.2,0,47.1c-2.3,0-4.6,0.1-6.9-0.1c-0.7-0.1-1.4-1-1.8-1.8
		c-6-9.5-11.9-19-17.9-28.5c-0.6-1-1.4-1.9-2.6-2.6c0,10.9,0,21.7,0,32.8c-2.7,0-5.1,0-7.7,0C368.3,444.1,368.3,428.6,368.3,412.6z"
		/>
	<path d="M526.4,439.7c3.6,6.6,7,13.1,10.8,20.1c-2.9,0-5.3,0.1-7.8-0.1c-0.6,0-1.2-1-1.5-1.7c-2.6-4.8-5.2-9.7-7.6-14.6
		c-0.8-1.6-1.8-2.2-3.5-2.1c-2.3,0.1-4.6,0-7.2,0c0,6.1,0,12.1,0,18.2c-2.7,0-5.2,0-7.8,0c0-15.6,0-31.1,0-46.7
		c0.1-0.1,0.2-0.3,0.4-0.3c7.1,0.1,14.2-0.3,21.2,0.5c6.7,0.7,10.7,4.8,11.6,10.3c1.2,7.1-1.2,11.9-7.4,15.4
		C527.2,439.1,526.9,439.3,526.4,439.7z M509.6,435.2c2.7,0,5.2,0,7.7,0c1,0,2,0,3-0.1c4.3-0.5,6.8-3.3,7.2-7.6
		c0.3-4-1.7-7.5-5.4-8.2c-4-0.7-8.2-0.6-12.5-0.9C509.6,424.2,509.6,429.5,509.6,435.2z"/>
	<path d="M364.8,334.1c-2.5,4.2-4.8,8-7.2,11.8c-1.9,3.2-3.8,6.4-5.9,9.6c-1,1.5-0.9,2.6,0.1,4.1c4.2,6.6,8.2,13.3,12.3,20
		c0.3,0.5,0.5,1,1,1.9c-2.8,0-5.4,0.1-7.9-0.1c-0.7-0.1-1.5-0.9-1.9-1.6c-2.6-4.3-5.1-8.7-7.7-13.1c-0.5-0.8-1-1.7-1.8-2.9
		c-0.7,1-1.2,1.7-1.6,2.4c-2.7,4.6-5.4,9.1-8.1,13.8c-0.7,1.2-1.4,1.6-2.8,1.6c-2.2-0.1-4.4,0-7.1,0c3.2-5.2,6.1-9.9,9-14.7
		c1.5-2.4,2.9-4.9,4.5-7.2c1-1.5,0.9-2.6,0-4c-4.3-6.9-8.5-13.9-13-21.3c3,0,5.6-0.1,8.2,0.1c0.6,0.1,1.3,1.1,1.8,1.8
		c3,5,5.9,10,9,15.4c0.7-1,1.1-1.6,1.5-2.3c2.6-4.5,5.2-9.1,8-13.5c0.5-0.7,1.6-1.4,2.5-1.5C359.9,333.9,362.1,334.1,364.8,334.1z"
		/>
	<path d="M323.6,381.3c-2.4,0-4.6,0.1-6.7-0.1c-0.6-0.1-1.5-0.9-1.7-1.6c-1-2.5-1.8-5-2.6-7.5c-0.5-1.5-1.2-2.1-2.8-2.1
		c-4.9,0.1-9.8,0.1-14.7,0c-1.6,0-2.4,0.6-2.8,2.1c-0.8,2.6-1.7,5.2-2.8,7.7c-0.2,0.6-1,1.4-1.6,1.4c-2.1,0.2-4.3,0.1-6.7,0.1
		c0.3-1.1,0.6-1.8,0.8-2.6c5.3-14.1,10.7-28.1,15.9-42.2c0.7-2,1.8-2.6,3.8-2.5c4.2,0.1,4.2,0,5.7,3.9c5.2,13.7,10.4,27.4,15.5,41
		C323.2,379.7,323.3,380.4,323.6,381.3z M295.1,363.9c5,0,9.6,0,14.6,0c-2.4-6.8-4.7-13.4-7-19.9c-0.2,0-0.5,0.1-0.7,0.1
		C299.7,350.6,297.4,357.1,295.1,363.9z"/>
	<path d="M244.2,412.3c8,0.3,15.9,0.1,23.6,1.1c6.6,0.8,10.3,5.7,11.4,12.7c0.8,5.3-1.8,10.9-6.7,13.4c-2.5,1.3-5.5,2-8.3,2.3
		c-3.9,0.4-7.9,0.1-12.2,0.1c0,6.1,0,11.9,0,17.8c-2.7,0-5.2,0-7.8,0C244.2,444,244.2,428.5,244.2,412.3z M252,435.7
		c4.2,0,8.1,0.1,11.9,0c4.5-0.2,7-2.8,7.5-7.1c0.5-4.2-1.6-8.4-5.6-9.1c-4.5-0.9-9.2-0.7-13.9-1C252,424.5,252,430,252,435.7z"/>
	<path d="M362,459.7c-7.5,0.8-7.4,0.8-9.9-6c-2.3-6.2-0.4-5-7.1-5.1c-3.8-0.1-7.7,0-11.5,0c-1.5,0-2.3,0.4-2.7,1.9
		c-0.8,2.7-1.8,5.4-2.8,8c-0.2,0.6-0.9,1.4-1.4,1.4c-2.2,0.2-4.4,0.1-7,0.1c2.4-6.4,4.7-12.5,7-18.5c3.3-8.8,6.7-17.6,9.9-26.4
		c0.7-1.8,1.5-2.8,3.6-2.4c1,0.2,2-0.1,3,0.1c0.7,0.2,1.7,0.7,1.9,1.3c5.7,14.8,11.3,29.7,16.9,44.5
		C361.9,458.8,361.9,459.2,362,459.7z M341.2,422.5c-0.3,0-0.5,0-0.8,0c-2.3,6.5-4.5,13-6.9,19.8c5,0,9.6,0,14.6,0
		C345.8,435.6,343.5,429.1,341.2,422.5z"/>
	<path d="M493.9,412.7c0,2,0,3.7,0,5.8c-1.4,0-2.7,0-4,0c-5.4,0-10.8,0.1-16.2,0c-1.7,0-2.3,0.6-2.3,2.3c0.1,3.7,0,7.5,0,11.5
		c6.5,0,12.8,0,19.3,0c0,2.1,0,3.9,0,6c-6.3,0-12.6,0-19.2,0c0,5.2,0,10,0,15.2c7.5,0,15,0,22.6,0c0,2.2,0,4.1,0,6.2
		c-10.1,0-20.1,0-30.4,0c0-15.6,0-31.2,0-47C473.8,412.7,483.7,412.7,493.9,412.7z"/>
	<path d="M277.8,340.1c-4.8,0-9.5,0-14.5,0c0,13.9,0,27.4,0,41.1c-2.6,0-5,0-7.8,0c0-1,0-1.9,0-2.9c0-11.8-0.1-23.6,0.1-35.5
		c0-2.2-0.7-2.9-2.8-2.8c-3.9,0.2-7.8,0-11.9,0c0-2,0-3.8,0-5.8c12.2,0,24.4,0,36.9,0C277.8,336,277.8,337.8,277.8,340.1z"/>
	<path d="M287.3,412.7c2.5,0,4.9,0,7.6,0c0,13.5,0,27,0,40.8c7.3,0,14.3,0,21.5,0c0,2.2,0,4.1,0,6.1c-9.7,0-19.3,0-29.1,0
		C287.3,444,287.3,428.5,287.3,412.7z"/>
	<path d="M372.8,334.1c2.6,0,4.9,0,7.4,0c0,15.7,0,31.2,0,47c-2.4,0-4.8,0-7.4,0C372.8,365.5,372.8,350,372.8,334.1z"/>
	<path d="M138,423.4c-5.5,0-11,0-16.5,0c-3.2,0-3.9-0.8-4-4c0-0.7,0-1.5,0-2.2c0.1-2.6,1-3.6,3.7-3.6c8.7,0,17.5,0,26.2,0
		c2.7,0,5.3,0,8,0c2.5,0.1,3.4,1,3.5,3.5c0,0.7,0,1.3,0,2c0,3.6-0.7,4.3-4.2,4.3C149.2,423.5,143.6,423.4,138,423.4z"/>
	<path d="M109.5,415.4c0,5.2-3.9,9.1-9.2,9c-4.9,0-9-4.1-9.1-9c-0.1-4.9,4.3-9.3,9.2-9.3C105.4,406.2,109.5,410.3,109.5,415.4z"/>
	<path d="M176,424.5c-5.1,0-9-3.9-9-9c0-5.2,4-9.3,9.1-9.3c4.9,0,9.1,4.2,9.1,9.1C185.3,420.3,181.1,424.5,176,424.5z"/>
</g>
</svg>
