<?xml version="1.0" encoding="utf-8"?>
<svg version="1.1" id="Layer_1" xmlns="http://www.w3.org/2000/svg" xmlns:xlink="http://www.w3.org/1999/xlink" x="0px" y="0px"
	 viewBox="0 0 69.5 92.9" style="enable-background:new 0 0 69.5 92.9;" xml:space="preserve">
<g>
	<path d="M69.5,36.7c0.3,6.9-3.2,13.7-7.5,20.1C54.3,68,46.5,79.2,38.7,90.5c-2.1,3.1-5.4,3.3-7.5,0.4c-9-13-18.5-25.7-26.5-39.3
		C-8.2,29.7,6.8,2.2,32.2,0.1C52.3-1.6,70.4,15.5,69.5,36.7z M34.9,20.1c-8.2,0-14.6,6.3-14.7,14.5c-0.1,8.2,6.3,14.8,14.6,14.9
		c8,0.1,14.6-6.5,14.7-14.5C49.6,26.7,43.1,20.1,34.9,20.1z"/>
</g>
</svg>
